<svg xmlns="http://www.w3.org/2000/svg" viewBox="0 0 218.18 218.18"><defs><style>.cls-1{stroke:#000;stroke-miterlimit:10;stroke-width:1.48px;}.cls-2{fill:#fff;}</style></defs><g id="Layer_2" data-name="Layer 2"><g id="Layer_1-2" data-name="Layer 1"><circle class="cls-1" cx="109.09" cy="109.09" r="108.35"/><path class="cls-2" d="M36.9,43.55a15.77,15.77,0,0,0,1.74-.43,13.64,13.64,0,0,0,1.71-.65A11.52,11.52,0,0,0,42,41.58a9.54,9.54,0,0,0,1.46-1.16,5.76,5.76,0,0,0,.47-.53,2.66,2.66,0,0,0,.32-.51,1.09,1.09,0,0,0,.1-.48.55.55,0,0,0-.18-.41.82.82,0,0,0-.4-.22,1.15,1.15,0,0,0-.65,0,4.63,4.63,0,0,0-1,.44,13.68,13.68,0,0,0-1.45,1,16.3,16.3,0,0,1-2.07,1.37,5.82,5.82,0,0,1-1.75.67,2.79,2.79,0,0,1-1.47-.06,3.1,3.1,0,0,1-1.28-.83,2.87,2.87,0,0,1-.76-1.32,3.13,3.13,0,0,1,0-1.55A5.55,5.55,0,0,1,34,36.3a9.86,9.86,0,0,1,1.46-1.76c.25-.24.52-.47.79-.69s.57-.43.86-.62.59-.37.88-.54.58-.31.86-.44l.49-1.62.74-.73,2.54,2.61a15.68,15.68,0,0,0-1.76.53,14.39,14.39,0,0,0-1.59.7,12.92,12.92,0,0,0-1.38.83,9.17,9.17,0,0,0-1.14.93,4.23,4.23,0,0,0-.54.63,2.54,2.54,0,0,0-.32.56,1,1,0,0,0-.09.46.45.45,0,0,0,.13.33.77.77,0,0,0,.41.23,1.15,1.15,0,0,0,.64-.1,6,6,0,0,0,1-.53c.41-.25.94-.6,1.58-1,.42-.3.84-.57,1.23-.83A11.6,11.6,0,0,1,42,34.56a5.38,5.38,0,0,1,1.11-.41,3.2,3.2,0,0,1,1.06-.09,3,3,0,0,1,1,.29,3.86,3.86,0,0,1,1,.76,2.83,2.83,0,0,1,.8,1.47,3.47,3.47,0,0,1-.11,1.65,6,6,0,0,1-.84,1.7,10.8,10.8,0,0,1-1.41,1.66A10.66,10.66,0,0,1,43,42.92a8,8,0,0,1-2,.93l-.34,1.39-1.06,1Z"/><path class="cls-2" d="M48.14,30.7A5.43,5.43,0,0,1,47.35,29a5.11,5.11,0,0,1-.13-1.68,5.5,5.5,0,0,1,.42-1.59,6.94,6.94,0,0,1,.84-1.44A8.28,8.28,0,0,1,49.6,23a9.94,9.94,0,0,1,1.29-1,11.58,11.58,0,0,1,1.53-.87A9,9,0,0,1,54,20.54a6.93,6.93,0,0,1,1.63-.2,4.86,4.86,0,0,1,3,1A5.67,5.67,0,0,1,60,22.77a5.52,5.52,0,0,1,.79,1.7,5,5,0,0,1,.14,1.67,5.42,5.42,0,0,1-.4,1.57,7.71,7.71,0,0,1-.82,1.45,8,8,0,0,1-1.13,1.27,10.22,10.22,0,0,1-1.34,1.06,11.82,11.82,0,0,1-1.48.84,9.45,9.45,0,0,1-1.59.57,7,7,0,0,1-1.64.22,5.08,5.08,0,0,1-1.6-.23,4.85,4.85,0,0,1-1.49-.78A5.56,5.56,0,0,1,48.14,30.7Zm3.7-2.48a6.5,6.5,0,0,0,1.08,1.27,4.64,4.64,0,0,0,1.19.79,2.77,2.77,0,0,0,1.2.26,2,2,0,0,0,1.07-.34,1.91,1.91,0,0,0,.72-.87,3.14,3.14,0,0,0,.22-1.21,4.73,4.73,0,0,0-.27-1.41,6.39,6.39,0,0,0-.75-1.47A6.47,6.47,0,0,0,55.22,24,4.8,4.8,0,0,0,54,23.14a3,3,0,0,0-1.21-.27,2,2,0,0,0-1.11.34,1.88,1.88,0,0,0-.72.88,3,3,0,0,0-.2,1.22,4.49,4.49,0,0,0,.29,1.42A6.56,6.56,0,0,0,51.84,28.22Z"/><path class="cls-2" d="M63.92,16.85l-2.7-.93,7.32-3.11-1,2.51,1.34,3.17a10,10,0,0,0,.87,1.63,3.41,3.41,0,0,0,.93.93,1.85,1.85,0,0,0,1,.31,2.76,2.76,0,0,0,1.14-.26,3.83,3.83,0,0,0,.67-.35,2,2,0,0,0,.49-.46,1.63,1.63,0,0,0,.3-.62,2.64,2.64,0,0,0,.06-.82,5.43,5.43,0,0,0-.19-1.06,12.6,12.6,0,0,0-.48-1.35l-1.34-3.15-2.27-1.12,5.27-2.24-1,2.52L75.82,16a8.51,8.51,0,0,1,.57,1.79,4.91,4.91,0,0,1,.09,1.5,3.39,3.39,0,0,1-.34,1.21,4,4,0,0,1-.73,1,5.42,5.42,0,0,1-1,.81A11,11,0,0,1,73,23a10.33,10.33,0,0,1-2.7.79,4.56,4.56,0,0,1-2.09-.2,3.94,3.94,0,0,1-1.6-1.14,8.12,8.12,0,0,1-1.2-2Z"/><path class="cls-2" d="M85.89,16.41,84.25,9.17l-1.49.34-2.08,3.73L79.49,8.7l4.39-1,0,0v0l8.34-1.89.88,4.61L89.57,8l-1.43.32,1.63,7.24,3,1.28-9,2Z"/><path class="cls-2" d="M99.31,13.86l-.23-7L96.9,5l6-.19L103.06,9l4.16-.13-.13-4.15L113,4.5l-1.92,2,.23,7,2.18,1.86-6,.19-.17-5.12-4.16.13.17,5.12-6,.19Z"/><path class="cls-2" d="M124.54,11.23a5.62,5.62,0,0,1,.69-1.7,4.94,4.94,0,0,1,1.1-1.26,5.63,5.63,0,0,1,1.42-.85A7.61,7.61,0,0,1,129.42,7a9.22,9.22,0,0,1,1.83-.08,10.53,10.53,0,0,1,1.9.29,9.15,9.15,0,0,1,1.13.34,11.72,11.72,0,0,1,1.08.47,11,11,0,0,1,1,.57,6.06,6.06,0,0,1,.82.62l.73-.59,1.65.39-.85,3.59-1.87-.44a4.65,4.65,0,0,0-.51-1.16,4.81,4.81,0,0,0-1.81-1.66,5.4,5.4,0,0,0-1.18-.44,3.91,3.91,0,0,0-1.36-.07,3,3,0,0,0-1.25.47,3.49,3.49,0,0,0-1,1.06A5.21,5.21,0,0,0,129,12a4.7,4.7,0,0,0-.11,1.8,3.78,3.78,0,0,0,.5,1.44,3.28,3.28,0,0,0,1,1,4,4,0,0,0,1.34.59,6,6,0,0,0,1.14.17,2.83,2.83,0,0,0,.93-.12l.44-1.85-1.66-2.56,5.91,1.39-1.33,5.63-1.74-.41-.23-.83a6.06,6.06,0,0,1-1,.25,6.75,6.75,0,0,1-1.11.07,8.74,8.74,0,0,1-1.14-.08,9.62,9.62,0,0,1-1.17-.22,16.12,16.12,0,0,1-1.9-.57,10,10,0,0,1-1.68-.8,7.32,7.32,0,0,1-1.34-1,4.64,4.64,0,0,1-.94-1.29,4.21,4.21,0,0,1-.44-1.56A5.52,5.52,0,0,1,124.54,11.23Z"/><path class="cls-2" d="M142.85,19.57l6.19-5-.71-2.36,8.07,3.67-2.05,1.18v7.71l1,2.57-7.23-3.3,2.29-1,0-.86-4.55-2.07-.65.58,1.19,2.62L140,20.37Zm7.69.89.19-4.6L147.22,19Z"/><path class="cls-2" d="M162,29.59l4.25-6.09L165,22.63l-4.16,1,2.55-3.94,3.7,2.58v0l0,0,7,4.89-2.82,3.76-.58-4.29-1.21-.84-4.24,6.09,1.1,3.1-7.59-5.29Z"/><path class="cls-2" d="M172.84,37.86l4.94-5L177.63,30l9.74,9.7-2.75,2.55-.71-3.56-3.17-3.15L179,37.35l3.22,3.22L181,41.75l-3.23-3.22-2.27,2.28L178.69,44l3.5.88-2.53,2.53L170,37.72Z"/><path class="cls-2" d="M33.61,174.8,38.75,170l-.18-3,1,1.07,1,1.11c.35.37.69.72,1,1.07l.93,1q.44.45.78.84l.58.62c.32.36.66.73,1,1.13s.66.81.95,1.22a9.46,9.46,0,0,1,.76,1.27,4.61,4.61,0,0,1,.42,1.25,2.56,2.56,0,0,1,0,1.17,2.17,2.17,0,0,1-.66,1,2.37,2.37,0,0,1-.83.51,2.41,2.41,0,0,1-.93.12,3.51,3.51,0,0,1-1-.23,6.24,6.24,0,0,1-1.07-.53,2.54,2.54,0,0,1,.37.88,2.76,2.76,0,0,1-.3,1.93,3.11,3.11,0,0,1-.68.87l-.32.3.14,2.76-5-5.46,2-.25.69-.63a2.22,2.22,0,0,0,.45-.58,1.77,1.77,0,0,0,.21-.61,1.67,1.67,0,0,0,0-.59,1.21,1.21,0,0,0-.28-.49l-1.57-1.7-1.77,1.63L35.83,180l-5.23-5.66Zm6.32,1.09a9.84,9.84,0,0,0,1,1,3.12,3.12,0,0,0,.85.55,1.41,1.41,0,0,0,.78.07,1.72,1.72,0,0,0,.75-.45,1.46,1.46,0,0,0,.41-.56,1.42,1.42,0,0,0,.11-.6,2,2,0,0,0-.15-.61,3.24,3.24,0,0,0-.32-.61,5.67,5.67,0,0,0-.43-.57c-.15-.19-.31-.36-.46-.53l-.75-.81-2.53,2.34Z"/><path class="cls-2" d="M47.6,188.65,51.72,183l-.58-2.81,11.1,8.1-2.33,2.94-1.25-3.41-3.6-2.63-1.48,2,3.68,2.68-1,1.35-3.68-2.69-1.9,2.6,3.61,2.63,3.59.33L55.79,197l-11-8.05Z"/><path class="cls-2" d="M65.61,192.37l-1.42-2.79,7,3.34-1.78,1L69,200.39l4.29-4.58-.39-2.11,5.54,2.62-2.79.63-7,6.71-3.41-1.61Z"/><path class="cls-2" d="M78.9,202.16a5.54,5.54,0,0,1,.77-1.74,5,5,0,0,1,1.16-1.22,5.15,5.15,0,0,1,1.46-.74,7.52,7.52,0,0,1,1.63-.35,9.43,9.43,0,0,1,1.68,0,11.9,11.9,0,0,1,1.62.28,12.6,12.6,0,0,1,1.67.56,9.51,9.51,0,0,1,1.51.82,7.07,7.07,0,0,1,1.24,1.07,5.41,5.41,0,0,1,.88,1.35,4.94,4.94,0,0,1,.4,1.62,6,6,0,0,1-.19,1.88,5.46,5.46,0,0,1-.75,1.73,5.07,5.07,0,0,1-1.14,1.21,5.23,5.23,0,0,1-1.44.76,7.32,7.32,0,0,1-1.62.36,8.88,8.88,0,0,1-1.71,0,10.34,10.34,0,0,1-1.68-.28,10.93,10.93,0,0,1-1.61-.55,8.5,8.5,0,0,1-1.49-.8A7.59,7.59,0,0,1,80,207.05a4.87,4.87,0,0,1-.89-1.35,4.72,4.72,0,0,1-.42-1.62A5.94,5.94,0,0,1,78.9,202.16Zm4.31,1.1a6.55,6.55,0,0,0-.21,1.65,4.77,4.77,0,0,0,.2,1.42,2.84,2.84,0,0,0,.61,1.06,1.92,1.92,0,0,0,1,.57,1.9,1.9,0,0,0,1.13,0,3.06,3.06,0,0,0,1-.65,4.75,4.75,0,0,0,.87-1.14,6.86,6.86,0,0,0,.6-1.54,7.53,7.53,0,0,0,.23-1.65,4.92,4.92,0,0,0-.19-1.44,2.85,2.85,0,0,0-.61-1.08,2,2,0,0,0-1-.6,1.9,1.9,0,0,0-1.13.05,3,3,0,0,0-1,.67,4.43,4.43,0,0,0-.86,1.16A6.76,6.76,0,0,0,83.21,203.26Z"/><path class="cls-2" d="M98.25,209.85l.44-7-2-2.05,9,.57-3,1.74-.46,7.18,4,.25,3.25-2.47-.28,4.4L96,211.64Z"/><path class="cls-2" d="M114.46,203.34l-2.34-1.65,7.91-.93-1.69,2.12.41,3.41a8.8,8.8,0,0,0,.37,1.81,3.42,3.42,0,0,0,.63,1.16,1.78,1.78,0,0,0,.89.58,3,3,0,0,0,1.17.08,3.91,3.91,0,0,0,.73-.16,1.83,1.83,0,0,0,.61-.3,1.75,1.75,0,0,0,.46-.51,2.48,2.48,0,0,0,.29-.77,4.76,4.76,0,0,0,.11-1.07,10.88,10.88,0,0,0-.08-1.43l-.4-3.4-1.87-1.71,5.69-.68-1.7,2.14.46,3.85a9.46,9.46,0,0,1,0,1.89,5.49,5.49,0,0,1-.34,1.46,3.35,3.35,0,0,1-.67,1.07,3.65,3.65,0,0,1-1,.75,5.64,5.64,0,0,1-1.23.49,14.32,14.32,0,0,1-1.47.27,10.07,10.07,0,0,1-2.81,0,4.4,4.4,0,0,1-2-.78,3.81,3.81,0,0,1-1.21-1.54,7.9,7.9,0,0,1-.59-2.28Z"/><path class="cls-2" d="M136.35,206.54l-2.21-7.09-1.45.45-1.79,3.89-1.54-4.43,4.29-1.34,0,0v0l8.16-2.55,1.24,4.53-3.75-2.16-1.39.43,2.2,7.09,3.13,1-8.83,2.75Z"/><path class="cls-2" d="M146.74,195.23l-2.41-1,5.1-2.46,3.88,8,2.42,1-5.11,2.47Z"/><path class="cls-2" d="M156.78,194.24a5.4,5.4,0,0,1-.82-1.72,4.84,4.84,0,0,1-.15-1.68,5,5,0,0,1,.39-1.59,7.14,7.14,0,0,1,.81-1.45,8.79,8.79,0,0,1,1.1-1.27,10.23,10.23,0,0,1,1.28-1,10.88,10.88,0,0,1,1.51-.89,9.21,9.21,0,0,1,1.6-.61,7.12,7.12,0,0,1,1.63-.23,4.93,4.93,0,0,1,3.08,1,6,6,0,0,1,1.3,1.38,5.44,5.44,0,0,1,.81,1.69,4.76,4.76,0,0,1,.16,1.66,5.06,5.06,0,0,1-.37,1.58,6.88,6.88,0,0,1-.79,1.46,8,8,0,0,1-1.11,1.3,11.13,11.13,0,0,1-1.32,1.08,11.74,11.74,0,0,1-1.47.85,7.77,7.77,0,0,1-1.58.6,7,7,0,0,1-1.63.25,5.12,5.12,0,0,1-1.61-.2,5.27,5.27,0,0,1-1.5-.75A5.74,5.74,0,0,1,156.78,194.24Zm3.65-2.53a6.4,6.4,0,0,0,1.11,1.24,4.47,4.47,0,0,0,1.2.78,2.75,2.75,0,0,0,1.2.23,2,2,0,0,0,1.07-.35,1.89,1.89,0,0,0,.7-.88,3,3,0,0,0,.2-1.21,4.67,4.67,0,0,0-.29-1.41,6.63,6.63,0,0,0-.77-1.46,7.53,7.53,0,0,0-1.1-1.26,4.78,4.78,0,0,0-1.21-.8,2.8,2.8,0,0,0-1.21-.25,2,2,0,0,0-1.11.36,1.93,1.93,0,0,0-.7.89,3,3,0,0,0-.18,1.22,4.55,4.55,0,0,0,.31,1.42A7.28,7.28,0,0,0,160.43,191.71Z"/><path class="cls-2" d="M175.34,184.7,170.46,180l-3.15.19,4-4.15,8.15-.59L177,173l-2.85.18,4.22-4.36.06,2.7,6.41,6.21-1.43,1.48-10.12.62,3.53,3.42,3-.3-4.45,4.59Z"/><path class="cls-2" d="M101.22,34.33c1.28-.15,2.59-.25,3.89-.32s2.63-.12,4-.12,2.66,0,4,.12,2.6.17,3.88.32a72.38,72.38,0,0,1,8.66,1.41c1.73.4,3.42.85,5.08,1.37.66.19,1.32.41,2,.63V24.63a86.35,86.35,0,0,0-8.73-2c-2.16-.39-4.35-.68-6.57-.9v0H100.82l.4-.05c-2.22.21-4.81.53-7,.92a82.33,82.33,0,0,0-8.73,2V191a82,82,0,0,0,8.71,2c2.18.39,4.39.7,6.62.9l.38,0q3.89.36,7.85.36t7.86-.36l.4,0c2.23-.2,4.43-.51,6.61-.9a87.2,87.2,0,0,0,8.71-2V100H105.53v15.7h11.4v65.63c-1.28.15-2.56.25-3.87.31h0c-1.32.07-2.65.12-4,.12s-2.64-.05-4-.12h0c-1.31-.06-2.6-.16-3.88-.31Zm7.85-12.95c-2.64,0-5.26.13-7.85.37h15.71C114.34,21.51,111.72,21.38,109.07,21.38Z"/><path class="cls-2" d="M42.42,52.82c1.58-1.87,3.46-4,5.19-5.74l.74-.74c1.73-1.73,3.54-3.37,5.43-4.94l.31-.26q2.55-2.13,5.26-4h0a89,89,0,0,1,7.55-4.77h0c.95-.52,1.91-1,2.86-1.52V84.23H54.09V58.43c-.87,1-1.72,2-2.54,3v0a72,72,0,0,0-5.09,7.13A31.1,31.1,0,0,0,44,72.93l-.15.16c-.33.6-.66,1.22-1,1.84h0A71.57,71.57,0,0,0,39,84.23c-.21.64-.42,1.28-.62,1.93h0c-.51,1.69-1,3.38-1.37,5.12A73.07,73.07,0,0,0,35.58,100H69.79v84.83c-1-.48-1.91-1-2.84-1.52a83.44,83.44,0,0,1-7.56-4.76c-1.82-1.27-3.59-2.63-5.3-4.05l-.3-.24q-3-2.53-5.82-5.32c-1.85-1.83-3.61-3.77-5.29-5.79l-.25-.29v0c-1.42-1.7-2.77-3.48-4-5.28a83.92,83.92,0,0,1-4.76-7.59c-.53-.93-1-1.86-1.53-2.83v0a84.89,84.89,0,0,1-5.23-12.61c-.34-1-.65-2-.94-3.08H39a71.57,71.57,0,0,0,3.87,9.29c.31.64.63,1.25,1,1.86h0c.82,1.55,1.7,3.08,2.64,4.53v0h0a71.42,71.42,0,0,0,5.08,7.13h0c.83,1,1.67,2,2.54,3V115.66H23c-.24-2.57-.36-5.21-.36-7.85a67.41,67.41,0,0,1,.32-7l0-.86,0-.41c.2-2.22.5-4.39.88-6.57v0a84.16,84.16,0,0,1,2-8.72c.29-1,.6-2,.94-3.08h0a83.67,83.67,0,0,1,5.23-12.61c.49-1,1-1.9,1.53-2.83v0a82.07,82.07,0,0,1,4.76-7.56v0c1.28-1.81,2.62-3.56,4-5.28"/><path class="cls-2" d="M178.7,115.66h16.42c.24-2.57.36-5.21.36-7.85s-.12-5.28-.36-7.86a2.25,2.25,0,0,0,0-.38q-.3-3.36-.89-6.61h0a84.13,84.13,0,0,0-2-8.72c-.29-1-.61-2-.95-3.08h0a81.64,81.64,0,0,0-5.23-12.61c-.48-1-1-1.92-1.51-2.85h0a86.25,86.25,0,0,0-4.76-7.54h0c-1.28-1.83-2.64-3.58-4.05-5.3a2.34,2.34,0,0,0-.25-.3h0l-3.93-4.42c-.46-.47-.91-.93-1.38-1.39l-.47-.47c-1.7-1.69-3.48-3.3-5.32-4.84h0a2.32,2.32,0,0,1-.3-.26c-1.7-1.4-3.47-2.75-5.28-4h0c-2.44-1.71-4.95-3.3-7.56-4.77h0c-1-.52-1.89-1-2.86-1.52v154c1-.48,1.91-1,2.86-1.52a81.76,81.76,0,0,0,7.54-4.76c1.83-1.27,3.59-2.63,5.31-4.05V131.37H166l9.77,9.76v0l4,4v0l1.9,1.88v0l2.86,2.84c.52-.94,1-1.87,1.51-2.84v0a80.83,80.83,0,0,0,5.23-12.61l-3.08-3.08h0L186.85,130h0l-5.72-5.72L179.78,123v0l-4-4h0l-3.26-3.26h6.22M164.07,100V58.43c.87,1,1.72,2,2.52,3h0a70.78,70.78,0,0,1,5.1,7.12c.93,1.48,1.81,3,2.63,4.53v0c.34.61.65,1.21,1,1.85h0a72.94,72.94,0,0,1,3.86,9.29c.23.66.44,1.31.64,2V100Z"/></g></g></svg>