<svg xmlns="http://www.w3.org/2000/svg" viewBox="0 0 220.69 220.7"><defs><style>.cls-1{stroke:#000;stroke-miterlimit:10;stroke-width:1.58px;}</style></defs><g id="Layer_2" data-name="Layer 2"><g id="Layer_1-2" data-name="Layer 1"><path class="cls-1" d="M100.39,17.2c1.62-.19,3.28-.31,4.93-.39s3.34-.16,5-.16,3.37.07,5,.16,3.29.2,4.91.39a93.45,93.45,0,0,1,11,1.8c2.19.5,4.34,1.07,6.45,1.73.83.24,1.67.52,2.5.81V4.92a105.06,105.06,0,0,0-11.06-2.49c-2.74-.49-5.51-.87-8.33-1.14l0,0H99.89l.5-.06c-2.82.27-6.1.68-8.85,1.17A102.38,102.38,0,0,0,80.48,4.92V215.79a103.34,103.34,0,0,0,11,2.49c2.76.49,5.56.88,8.38,1.13l.49.05c3.28.3,6.6.46,10,.46s6.68-.16,10-.46l.51-.05c2.83-.25,5.62-.64,8.38-1.13a105.83,105.83,0,0,0,11-2.49V100.4H105.86v19.92H120.3v83.2c-1.62.19-3.24.31-4.9.39h0c-1.67.09-3.36.16-5,.16s-3.36-.07-5-.16h0c-1.66-.08-3.3-.2-4.92-.39Zm10-16.41c-3.36,0-6.68.17-10,.47H120.3C117,1,113.7.79,110.35.79Z"/><path class="cls-1" d="M25.84,40.65c2-2.37,4.39-5.08,6.58-7.27l.93-1c2.21-2.19,4.49-4.27,6.89-6.25l.39-.33c2.16-1.8,4.38-3.5,6.68-5.11h0a106.57,106.57,0,0,1,9.58-6.05h0c1.2-.67,2.41-1.3,3.62-1.93V80.48H40.63V47.76c-1.1,1.21-2.17,2.47-3.21,3.75v0a93.24,93.24,0,0,0-6.46,9,40.73,40.73,0,0,0-3.15,5.58l-.19.2c-.43.76-.84,1.54-1.22,2.33v0a93.91,93.91,0,0,0-4.9,11.78c-.26.81-.53,1.62-.78,2.44v0c-.65,2.14-1.23,4.28-1.74,6.49a90.43,90.43,0,0,0-1.81,11H60.54V208c-1.21-.6-2.42-1.26-3.6-1.92a105.56,105.56,0,0,1-9.58-6c-2.32-1.61-4.56-3.34-6.73-5.14l-.38-.3c-2.57-2.14-5-4.4-7.37-6.74s-4.58-4.79-6.71-7.34a4.26,4.26,0,0,0-.32-.38v0c-1.79-2.16-3.51-4.41-5.13-6.69a110.19,110.19,0,0,1-6-9.63c-.67-1.18-1.32-2.36-1.93-3.59v0a107.19,107.19,0,0,1-6.64-16c-.42-1.29-.82-2.57-1.19-3.91H21.5A94.68,94.68,0,0,0,26.4,152c.4.8.81,1.57,1.22,2.35h0c1,2,2.16,3.91,3.34,5.75v0h0a91.46,91.46,0,0,0,6.45,9v0c1,1.27,2.11,2.52,3.21,3.75V120.32H1.24c-.29-3.26-.45-6.6-.45-9.95a86.44,86.44,0,0,1,.4-8.87l.05-1.09.05-.52c.25-2.82.63-5.58,1.12-8.33v0a106.66,106.66,0,0,1,2.51-11c.37-1.32.77-2.6,1.19-3.91h0a105.54,105.54,0,0,1,6.64-16c.61-1.21,1.26-2.41,1.93-3.59v0a106.64,106.64,0,0,1,6-9.59v0c1.62-2.3,3.32-4.52,5.12-6.7"/><path class="cls-1" d="M198.62,120.32h20.82c.3-3.26.46-6.6.46-9.95s-.16-6.7-.46-10a2.49,2.49,0,0,0,0-.49q-.39-4.24-1.12-8.38h0a106.66,106.66,0,0,0-2.51-11c-.36-1.32-.77-2.6-1.19-3.91h0a104.53,104.53,0,0,0-6.64-16c-.61-1.21-1.26-2.43-1.92-3.61v0a107.48,107.48,0,0,0-6-9.56h0c-1.63-2.32-3.34-4.54-5.14-6.72a2.17,2.17,0,0,0-.31-.37h0l-5-5.61c-.58-.6-1.15-1.18-1.75-1.77l-.6-.6c-2.16-2.14-4.41-4.17-6.74-6.12h0l-.38-.33c-2.15-1.78-4.39-3.49-6.69-5.11h0a108,108,0,0,0-9.58-6.05h0c-1.2-.67-2.4-1.3-3.63-1.93V208c1.23-.6,2.43-1.26,3.63-1.92a105.24,105.24,0,0,0,9.56-6c2.32-1.61,4.55-3.34,6.73-5.14V140.24h2.42l12.39,12.38v0l5.12,5.1v0l2.41,2.39v0l3.62,3.61c.66-1.2,1.31-2.38,1.92-3.61v0a104.11,104.11,0,0,0,6.64-16l-3.91-3.91h0l-1.7-1.7h0l-7.25-7.25-1.71-1.7v0l-5.12-5.1v0l-4.13-4.13h7.88m-18.55-19.91V47.76c1.11,1.23,2.18,2.47,3.2,3.77h0a90.26,90.26,0,0,1,6.46,9c1.18,1.87,2.3,3.81,3.34,5.75h0c.43.78.82,1.55,1.21,2.35v0a92.44,92.44,0,0,1,4.9,11.78c.29.84.56,1.66.81,2.52v17.41Z"/></g></g></svg>